<svg xmlns="http://www.w3.org/2000/svg" width="20" height="20" viewBox="0 0 20 20" fill="none">
<path fill-rule="evenodd" clip-rule="evenodd" d="M6.39199 1.6666H13.617C16.442 1.6666 18.3337 3.64993 18.3337 6.59993V13.4091C18.3337 16.3499 16.442 18.3333 13.617 18.3333H6.39199C3.56699 18.3333 1.66699 16.3499 1.66699 13.4091V6.59993C1.66699 3.64993 3.56699 1.6666 6.39199 1.6666ZM9.52533 12.4916L13.4837 8.53326C13.767 8.24993 13.767 7.7916 13.4837 7.49993C13.2003 7.2166 12.7337 7.2166 12.4503 7.49993L9.00866 10.9416L7.55033 9.48326C7.26699 9.19993 6.80033 9.19993 6.51699 9.48326C6.23366 9.7666 6.23366 10.2249 6.51699 10.5166L8.50033 12.4916C8.64199 12.6333 8.82533 12.6999 9.00866 12.6999C9.20033 12.6999 9.38366 12.6333 9.52533 12.4916Z" fill="#1F57E7"/>
</svg>